<?xml version="1.0" encoding="UTF-8" standalone="no"?>
<!-- Created with Inkscape (http://www.inkscape.org/) -->

<svg
   width="210mm"
   height="297mm"
   viewBox="0 0 210 297"
   version="1.1"
   id="svg1"
   xml:space="preserve"
   inkscape:export-filename="logo_ss.png"
   inkscape:export-xdpi="96"
   inkscape:export-ydpi="96"
   xmlns:inkscape="http://www.inkscape.org/namespaces/inkscape"
   xmlns:sodipodi="http://sodipodi.sourceforge.net/DTD/sodipodi-0.dtd"
   xmlns="http://www.w3.org/2000/svg"
   xmlns:svg="http://www.w3.org/2000/svg"><sodipodi:namedview
     id="namedview1"
     pagecolor="#ffffff"
     bordercolor="#000000"
     borderopacity="0.25"
     inkscape:showpageshadow="2"
     inkscape:pageopacity="0.0"
     inkscape:pagecheckerboard="0"
     inkscape:deskcolor="#d1d1d1"
     inkscape:document-units="mm"><inkscape:page
       x="0"
       y="0"
       width="210"
       height="297"
       id="page1"
       margin="0"
       bleed="0" /><inkscape:page
       x="220"
       y="0"
       width="210"
       height="297"
       id="page2"
       margin="0"
       bleed="0" /></sodipodi:namedview><defs
     id="defs1" /><g
     inkscape:label="Camada 1"
     inkscape:groupmode="layer"
     id="layer1" /><g
     id="g1"
     inkscape:groupmode="layer"
     inkscape:label="1"
     transform="matrix(0.26458333,0,0,0.26458333,220.00001,0)"><path
       id="path1"
       d="m 123.434,596.473 -8.09,7.152 c -2.84,-3.961 -5.731,-5.941 -8.676,-5.941 -1.434,0 -2.606,0.39 -3.516,1.171 -0.914,0.758 -1.371,1.618 -1.371,2.583 0,0.96 0.328,1.874 0.981,2.734 0.883,1.144 3.554,3.609 8.008,7.387 4.168,3.488 6.695,5.691 7.582,6.601 2.214,2.242 3.777,4.391 4.691,6.449 0.937,2.032 1.406,4.258 1.406,6.68 0,4.719 -1.629,8.613 -4.887,11.688 -3.253,3.074 -7.503,4.609 -12.738,4.609 -4.09,0 -7.66,-1.004 -10.707,-3.008 -3.023,-2.008 -5.613,-5.16 -7.777,-9.457 l 9.183,-5.551 c 2.762,5.082 5.942,7.621 9.536,7.621 1.875,0 3.453,-0.546 4.726,-1.64 1.277,-1.094 1.918,-2.36 1.918,-3.789 0,-1.305 -0.484,-2.606 -1.449,-3.91 -0.961,-1.301 -3.086,-3.297 -6.367,-5.977 -6.254,-5.109 -10.289,-9.043 -12.114,-11.805 -1.824,-2.785 -2.738,-5.558 -2.738,-8.32 0,-3.988 1.512,-7.398 4.535,-10.238 3.047,-2.867 6.801,-4.301 11.254,-4.301 2.867,0 5.586,0.664 8.168,1.992 2.606,1.332 5.418,3.754 8.442,7.27 z m 41.617,0 -8.09,7.152 c -2.84,-3.961 -5.731,-5.941 -8.676,-5.941 -1.433,0 -2.605,0.39 -3.515,1.171 -0.915,0.758 -1.372,1.618 -1.372,2.583 0,0.96 0.329,1.874 0.981,2.734 0.883,1.144 3.555,3.609 8.008,7.387 4.168,3.488 6.695,5.691 7.582,6.601 2.215,2.242 3.777,4.391 4.691,6.449 0.938,2.032 1.406,4.258 1.406,6.68 0,4.719 -1.628,8.613 -4.886,11.688 -3.254,3.074 -7.504,4.609 -12.739,4.609 -4.089,0 -7.66,-1.004 -10.707,-3.008 -3.023,-2.008 -5.613,-5.16 -7.777,-9.457 l 9.184,-5.551 c 2.761,5.082 5.941,7.621 9.535,7.621 1.875,0 3.453,-0.546 4.726,-1.64 1.278,-1.094 1.918,-2.36 1.918,-3.789 0,-1.305 -0.484,-2.606 -1.449,-3.91 -0.961,-1.301 -3.086,-3.297 -6.367,-5.977 -6.254,-5.109 -10.289,-9.043 -12.113,-11.805 -1.825,-2.785 -2.739,-5.558 -2.739,-8.32 0,-3.988 1.512,-7.398 4.536,-10.238 3.046,-2.867 6.8,-4.301 11.253,-4.301 2.868,0 5.586,0.664 8.168,1.992 2.606,1.332 5.418,3.754 8.442,7.27 z m 34.621,-7.817 h 11.605 c 6.356,0 10.875,0.574 13.559,1.723 2.711,1.117 4.887,2.992 6.527,5.625 1.641,2.633 2.461,5.746 2.461,9.34 0,3.777 -0.91,6.941 -2.734,9.496 -1.797,2.527 -4.52,4.441 -8.168,5.742 l 13.598,25.559 h -11.958 l -12.933,-24.344 h -1.016 v 24.344 h -10.941 z m 10.941,22.473 h 3.438 c 3.492,0 5.887,-0.457 7.191,-1.371 1.328,-0.91 1.992,-2.422 1.992,-4.531 0,-1.25 -0.324,-2.332 -0.976,-3.243 -0.653,-0.937 -1.524,-1.601 -2.617,-1.996 -1.094,-0.414 -3.102,-0.625 -6.02,-0.625 h -3.008 z m 52.246,-22.473 h 11.098 l 22.117,57.485 h -11.371 l -4.492,-11.84 h -23.449 l -4.688,11.84 h -11.371 z m 5.625,15.242 -7.656,19.735 h 15.277 z m 88.903,-5.121 -7.66,7.309 c -5.211,-5.496 -11.071,-8.246 -17.582,-8.246 -5.5,0 -10.137,1.875 -13.915,5.629 -3.75,3.75 -5.625,8.375 -5.625,13.871 0,3.832 0.833,7.23 2.5,10.199 1.668,2.969 4.024,5.301 7.075,6.996 3.047,1.692 6.433,2.539 10.16,2.539 3.176,0 6.082,-0.586 8.711,-1.758 2.633,-1.199 5.523,-3.359 8.676,-6.488 l 7.425,7.738 c -4.246,4.141 -8.257,7.02 -12.035,8.637 -3.777,1.59 -8.09,2.383 -12.933,2.383 -8.938,0 -16.258,-2.828 -21.965,-8.481 -5.676,-5.679 -8.516,-12.945 -8.516,-21.804 0,-5.731 1.289,-10.824 3.867,-15.278 2.606,-4.457 6.317,-8.039 11.137,-10.746 4.848,-2.711 10.055,-4.066 15.633,-4.066 4.738,0 9.297,1.004 13.676,3.012 4.402,2.004 8.191,4.855 11.371,8.554 z m -31.535,46.739 h 6.605 l -0.469,1.796 c 1.742,0.391 3.114,1.145 4.102,2.266 1.015,1.149 1.523,2.399 1.523,3.754 0,2.109 -0.886,3.918 -2.656,5.43 -1.773,1.511 -4.234,2.265 -7.387,2.265 -2.55,0 -5.445,-0.597 -8.675,-1.797 l 1.406,-5.039 c 1.879,0.598 3.715,0.899 5.511,0.899 1.329,0 2.321,-0.262 2.969,-0.781 0.653,-0.497 0.977,-1.161 0.977,-1.997 0,-0.675 -0.246,-1.21 -0.742,-1.601 -0.493,-0.391 -1.278,-0.586 -2.344,-0.586 l -2.188,0.078 z m 68.269,-58.305 c 8.125,0 15.109,2.945 20.945,8.832 5.86,5.887 8.789,13.066 8.789,21.531 0,8.391 -2.89,15.488 -8.671,21.297 -5.758,5.809 -12.754,8.715 -20.985,8.715 -8.625,0 -15.789,-2.984 -21.496,-8.949 -5.703,-5.965 -8.555,-13.051 -8.555,-21.258 0,-5.496 1.329,-10.551 3.985,-15.16 2.656,-4.614 6.305,-8.258 10.941,-10.942 4.664,-2.711 9.68,-4.066 15.047,-4.066 z m -0.117,10.707 c -5.316,0 -9.785,1.852 -13.406,5.551 -3.621,3.699 -5.43,8.402 -5.43,14.105 0,6.356 2.277,11.387 6.836,15.086 3.543,2.891 7.609,4.336 12.195,4.336 5.184,0 9.598,-1.875 13.246,-5.629 3.645,-3.75 5.469,-8.375 5.469,-13.871 0,-5.469 -1.836,-10.094 -5.508,-13.871 -3.676,-3.805 -8.14,-5.707 -13.402,-5.707 z m -12,-13.871 -4.297,-6.449 c 3.336,-2.578 6.707,-3.868 10.121,-3.868 1.277,0 3.465,0.442 6.567,1.329 2.109,0.574 3.789,0.859 5.039,0.859 2.187,0 4.453,-0.676 6.8,-2.031 l 4.063,6.097 c -3.281,2.813 -6.461,4.219 -9.535,4.219 -1.641,0 -3.61,-0.351 -5.899,-1.055 -1.879,-0.546 -3.062,-0.875 -3.558,-0.976 -0.676,-0.106 -1.485,-0.156 -2.422,-0.156 -2.293,0 -4.586,0.675 -6.879,2.031 z m 52.207,4.609 h 31.379 v 10.707 h -20.516 v 10.395 h 20.516 v 10.512 h -20.516 v 15.125 h 20.516 v 10.746 h -31.379 z m 71.707,7.817 -8.09,7.152 c -2.836,-3.961 -5.73,-5.941 -8.672,-5.941 -1.433,0 -2.605,0.39 -3.519,1.171 -0.91,0.758 -1.367,1.618 -1.367,2.583 0,0.96 0.328,1.874 0.976,2.734 0.887,1.144 3.559,3.609 8.012,7.387 4.168,3.488 6.695,5.691 7.582,6.601 2.215,2.242 3.777,4.391 4.687,6.449 0.938,2.032 1.407,4.258 1.407,6.68 0,4.719 -1.625,8.613 -4.883,11.688 -3.258,3.074 -7.504,4.609 -12.739,4.609 -4.089,0 -7.66,-1.004 -10.707,-3.008 -3.023,-2.008 -5.617,-5.16 -7.777,-9.457 l 9.184,-5.551 c 2.761,5.082 5.937,7.621 9.535,7.621 1.875,0 3.449,-0.546 4.726,-1.64 1.278,-1.094 1.915,-2.36 1.915,-3.789 0,-1.305 -0.481,-2.606 -1.446,-3.91 -0.965,-1.301 -3.086,-3.297 -6.367,-5.977 -6.254,-5.109 -10.293,-9.043 -12.117,-11.805 -1.82,-2.785 -2.735,-5.558 -2.735,-8.32 0,-3.988 1.512,-7.398 4.536,-10.238 3.046,-2.867 6.796,-4.301 11.253,-4.301 2.864,0 5.586,0.664 8.165,1.992 2.605,1.332 5.421,3.754 8.441,7.27 z"
       style="fill:#88e070;fill-opacity:1;fill-rule:nonzero;stroke:#ffffff;stroke-width:6.60263;stroke-linecap:butt;stroke-linejoin:round;stroke-miterlimit:4;stroke-dasharray:none;stroke-opacity:1;paint-order:stroke fill markers"
       transform="scale(1.3333333)" /><path
       id="path2"
       d="m 121.871,270.148 c 48.5,-50.273 112.453,-76.445 195.859,-72.269 -54.089,34.543 -264.214,136.004 -66.769,124.375 161.988,-17.133 140.07,38.539 -63.824,163.851 l 13.535,-22.98 C 167.016,411.113 138.816,350.008 121.871,270.148 Z"
       style="fill:#88e070;fill-opacity:1;fill-rule:nonzero;stroke:#ffffff;stroke-width:10.7886;stroke-linecap:butt;stroke-linejoin:round;stroke-miterlimit:4;stroke-dasharray:none;stroke-opacity:1;paint-order:stroke fill markers"
       transform="scale(1.3333333)" /><path
       id="path3"
       d="m 372.195,182.953 -9.82,21.602 c 49.047,12.394 82.117,37.34 111.809,64.937 -24.243,147.399 -95.375,225.274 -176.309,288.617 -27.75,-16.925 -48.77,-38.902 -69.695,-60.941 127.097,-62.254 289.672,-174.527 113.281,-207.598 -5.945,-0.722 -10.156,-1.289 -15.547,-1.531 -84.094,-2.824 -104.301,0.125 -69.098,-25.859 42.899,-31.664 99.227,-68.36 115.379,-79.227 z"
       style="fill:#068ae5;fill-opacity:1;fill-rule:nonzero;stroke:#ffffff;stroke-width:10.7886;stroke-linecap:butt;stroke-linejoin:round;stroke-miterlimit:4;stroke-dasharray:none;stroke-opacity:1;paint-order:stroke fill markers"
       transform="scale(1.3333333)" /><path
       id="path1-5"
       d="m -1427.6276,746.81439 -10.7867,9.536 c -3.7866,-5.28133 -7.6413,-7.92133 -11.568,-7.92133 -1.912,0 -3.4746,0.52 -4.688,1.56133 -1.2186,1.01067 -1.828,2.15734 -1.828,3.444 0,1.28 0.4374,2.49867 1.308,3.64534 1.1774,1.52533 4.7387,4.812 10.6774,9.84933 5.5573,4.65067 8.9266,7.588 10.1093,8.80133 2.952,2.98934 5.036,5.85467 6.2547,8.59867 1.2493,2.70933 1.8746,5.67733 1.8746,8.90667 0,6.292 -2.172,11.484 -6.516,15.584 -4.3373,4.09866 -10.004,6.14533 -16.984,6.14533 -5.4533,0 -10.2133,-1.33867 -14.276,-4.01067 -4.0306,-2.67733 -7.484,-6.88 -10.3693,-12.60933 l 12.244,-7.40133 c 3.6827,6.776 7.9227,10.16133 12.7147,10.16133 2.5,0 4.604,-0.728 6.3013,-2.18667 1.7027,-1.45866 2.5573,-3.14666 2.5573,-5.052 0,-1.74 -0.6453,-3.47466 -1.932,-5.21333 -1.2813,-1.73467 -4.1146,-4.396 -8.4893,-7.96933 -8.3387,-6.812 -13.7187,-12.05734 -16.152,-15.74 -2.432,-3.71334 -3.6507,-7.41067 -3.6507,-11.09334 0,-5.31733 2.016,-9.864 6.0467,-13.65066 4.0627,-3.82267 9.068,-5.73467 15.0053,-5.73467 3.8227,0 7.448,0.88533 10.8907,2.656 3.4747,1.776 7.224,5.00533 11.256,9.69333 z m 55.4893,0 -10.7866,9.536 c -3.7867,-5.28133 -7.6414,-7.92133 -11.568,-7.92133 -1.9107,0 -3.4734,0.52 -4.6867,1.56133 -1.22,1.01067 -1.8293,2.15734 -1.8293,3.444 0,1.28 0.4386,2.49867 1.308,3.64534 1.1773,1.52533 4.74,4.812 10.6773,9.84933 5.5573,4.65067 8.9267,7.588 10.1093,8.80133 2.9534,2.98934 5.036,5.85467 6.2547,8.59867 1.2507,2.70933 1.8747,5.67733 1.8747,8.90667 0,6.292 -2.1707,11.484 -6.5147,15.584 -4.3387,4.09866 -10.0053,6.14533 -16.9853,6.14533 -5.452,0 -10.2134,-1.33867 -14.276,-4.01067 -4.0307,-2.67733 -7.484,-6.88 -10.3694,-12.60933 l 12.2454,-7.40133 c 3.6813,6.776 7.9213,10.16133 12.7133,10.16133 2.5,0 4.604,-0.728 6.3013,-2.18667 1.704,-1.45866 2.5574,-3.14666 2.5574,-5.052 0,-1.74 -0.6454,-3.47466 -1.932,-5.21333 -1.2814,-1.73467 -4.1147,-4.396 -8.4894,-7.96933 -8.3386,-6.812 -13.7186,-12.05734 -16.1506,-15.74 -2.4334,-3.71334 -3.652,-7.41067 -3.652,-11.09334 0,-5.31733 2.016,-9.864 6.048,-13.65066 4.0613,-3.82267 9.0666,-5.73467 15.004,-5.73467 3.824,0 7.448,0.88533 10.8906,2.656 3.4747,1.776 7.224,5.00533 11.256,9.69333 z m 46.1614,-10.42266 h 15.4733 c 8.4747,0 14.5,0.76533 18.0787,2.29733 3.6146,1.48933 6.516,3.98933 8.7026,7.5 2.188,3.51067 3.2814,7.66133 3.2814,12.45333 0,5.036 -1.2134,9.25467 -3.6454,12.66134 -2.396,3.36933 -6.0266,5.92133 -10.8906,7.656 l 18.1306,34.07866 h -15.944 l -17.244,-32.45866 h -1.3546 v 32.45866 h -14.588 z m 14.588,29.964 h 4.584 c 4.656,0 7.8493,-0.60934 9.588,-1.828 1.7706,-1.21334 2.656,-3.22934 2.656,-6.04134 0,-1.66666 -0.432,-3.10933 -1.3014,-4.324 -0.8706,-1.24933 -2.032,-2.13466 -3.4893,-2.66133 -1.4587,-0.552 -4.136,-0.83333 -8.0267,-0.83333 h -4.0106 z m 69.6613,-29.964 h 14.7973 l 29.4894,76.64666 h -15.1614 l -5.9893,-15.78666 h -31.2653 l -6.2507,15.78666 h -15.1613 z m 7.5,20.32266 -10.208,26.31334 h 20.3693 z m 118.5373,-6.828 -10.2133,9.74534 c -6.948,-7.328 -14.7613,-10.99467 -23.4427,-10.99467 -7.3333,0 -13.516,2.5 -18.5533,7.50533 -5,5 -7.5,11.16667 -7.5,18.49467 0,5.10933 1.1107,9.64 3.3333,13.59867 2.224,3.95866 5.3654,7.068 9.4334,9.328 4.0626,2.256 8.5773,3.38533 13.5466,3.38533 4.2347,0 8.1094,-0.78133 11.6147,-2.344 3.5107,-1.59867 7.364,-4.47867 11.568,-8.65067 l 9.9,10.31734 c -5.6613,5.52133 -11.0093,9.36 -16.0467,11.516 -5.036,2.12 -10.7866,3.17733 -17.244,3.17733 -11.9173,0 -21.6773,-3.77067 -29.2866,-11.308 -7.568,-7.572 -11.3547,-17.26 -11.3547,-29.072 0,-7.64133 1.7187,-14.432 5.156,-20.37067 3.4747,-5.94266 8.4227,-10.71866 14.8493,-14.328 6.464,-3.61466 13.4067,-5.42133 20.844,-5.42133 6.3174,0 12.396,1.33867 18.2347,4.016 5.8693,2.672 10.9213,6.47333 15.1613,11.40533 z m -42.0466,62.31867 h 8.8066 l -0.6253,2.39467 c 2.3227,0.52133 4.152,1.52666 5.4693,3.02133 1.3534,1.532 2.0307,3.19866 2.0307,5.00533 0,2.812 -1.1813,5.224 -3.5413,7.24 -2.364,2.01467 -5.6454,3.02 -9.8494,3.02 -3.4,0 -7.26,-0.796 -11.5666,-2.396 l 1.8746,-6.71867 c 2.5054,0.79734 4.9534,1.19867 7.348,1.19867 1.772,0 3.0947,-0.34933 3.9587,-1.04133 0.8707,-0.66267 1.3027,-1.548 1.3027,-2.66267 0,-0.9 -0.328,-1.61333 -0.9894,-2.13467 -0.6573,-0.52133 -1.704,-0.78133 -3.1253,-0.78133 l -2.9173,0.104 z m 91.0253,-77.74 c 10.8333,0 20.1453,3.92667 27.9267,11.776 7.8133,7.84933 11.7186,17.42133 11.7186,28.708 0,11.188 -3.8533,20.65067 -11.5613,28.396 -7.6773,7.74533 -17.0053,11.62 -27.98,11.62 -11.5,0 -21.052,-3.97867 -28.6613,-11.932 -7.604,-7.95333 -11.4067,-17.40133 -11.4067,-28.344 0,-7.328 1.772,-14.068 5.3133,-20.21333 3.5414,-6.152 8.4067,-11.01067 14.588,-14.58934 6.2187,-3.61466 12.9067,-5.42133 20.0627,-5.42133 z m -0.156,14.276 c -7.088,0 -13.0467,2.46933 -17.8747,7.40133 -4.828,4.932 -7.24,11.20267 -7.24,18.80667 0,8.47467 3.036,15.18267 9.1147,20.11467 4.724,3.85466 10.1453,5.78133 16.26,5.78133 6.912,0 12.7973,-2.5 17.6613,-7.50533 4.86,-5 7.292,-11.16667 7.292,-18.49467 0,-7.292 -2.448,-13.45867 -7.344,-18.49467 -4.9013,-5.07333 -10.8533,-7.60933 -17.8693,-7.60933 z m -16,-18.49467 -5.7293,-8.59866 c 4.448,-3.43734 8.9426,-5.15734 13.4946,-5.15734 1.7027,0 4.62,0.58934 8.756,1.772 2.812,0.76534 5.052,1.14534 6.7187,1.14534 2.916,0 5.9373,-0.90134 9.0667,-2.708 l 5.4173,8.12933 c -4.3747,3.75067 -8.6147,5.62533 -12.7133,5.62533 -2.188,0 -4.8134,-0.468 -7.8654,-1.40666 -2.5053,-0.728 -4.0826,-1.16667 -4.744,-1.30134 -0.9013,-0.14133 -1.98,-0.208 -3.2293,-0.208 -3.0573,0 -6.1147,0.9 -9.172,2.708 z m 69.6093,6.14534 h 41.8387 v 14.276 h -27.35466 v 13.86 h 27.35466 v 14.016 h -27.35466 v 20.16666 h 27.35466 v 14.328 h -41.8387 z m 95.60937,10.42266 -10.78667,9.536 c -3.78133,-5.28133 -7.64,-7.92133 -11.56267,-7.92133 -1.91066,0 -3.47333,0.52 -4.692,1.56133 -1.21333,1.01067 -1.82266,2.15734 -1.82266,3.444 0,1.28 0.43733,2.49867 1.30133,3.64534 1.18267,1.52533 4.74533,4.812 10.68267,9.84933 5.55733,4.65067 8.92666,7.588 10.10933,8.80133 2.95333,2.98934 5.036,5.85467 6.24933,8.59867 1.25067,2.70933 1.876,5.67733 1.876,8.90667 0,6.292 -2.16666,11.484 -6.51066,15.584 -4.344,4.09866 -10.00534,6.14533 -16.98534,6.14533 -5.452,0 -10.21333,-1.33867 -14.276,-4.01067 -4.03066,-2.67733 -7.48933,-6.88 -10.36933,-12.60933 l 12.24533,-7.40133 c 3.68134,6.776 7.916,10.16133 12.71334,10.16133 2.5,0 4.59866,-0.728 6.30133,-2.18667 1.704,-1.45866 2.55333,-3.14666 2.55333,-5.052 0,-1.74 -0.64133,-3.47466 -1.928,-5.21333 -1.28666,-1.73467 -4.11466,-4.396 -8.48933,-7.96933 -8.33867,-6.812 -13.724,-12.05734 -16.156,-15.74 -2.42667,-3.71334 -3.64667,-7.41067 -3.64667,-11.09334 0,-5.31733 2.016,-9.864 6.048,-13.65066 4.06134,-3.82267 9.06134,-5.73467 15.004,-5.73467 3.81867,0 7.448,0.88533 10.88667,2.656 3.47333,1.776 7.228,5.00533 11.25467,9.69333 z"
       style="fill:#88e070;fill-opacity:1;fill-rule:nonzero;stroke:#ffffff;stroke-width:8.80351;stroke-linecap:butt;stroke-linejoin:round;stroke-miterlimit:4;stroke-dasharray:none;stroke-opacity:1;paint-order:stroke fill markers" /><path
       id="path2-2"
       d="m -1429.7116,311.71441 c 64.6667,-67.03067 149.9373,-101.92667 261.1453,-96.35867 -72.1186,46.05733 -352.2853,181.33866 -89.0253,165.83333 215.984,-22.844 186.76,51.38533 -85.0987,218.46799 l 18.0467,-30.64 c -44.8747,-69.34933 -82.4747,-150.82266 -105.068,-257.30265 z"
       style="fill:#88e070;fill-opacity:1;fill-rule:nonzero;stroke:#ffffff;stroke-width:14.3848;stroke-linecap:butt;stroke-linejoin:round;stroke-miterlimit:4;stroke-dasharray:none;stroke-opacity:1;paint-order:stroke fill markers" /><path
       id="path3-2"
       d="m -1095.9463,195.45441 -13.0933,28.80266 c 65.396,16.52534 109.48934,49.78667 149.07867,86.58267 -32.324,196.53199 -127.16667,300.36532 -235.07867,384.82265 -37,-22.56666 -65.0267,-51.86933 -92.9267,-81.25466 169.4627,-83.00533 386.22937,-232.70266 151.0414,-276.79732 -7.9267,-0.96267 -13.5414,-1.71867 -20.7294,-2.04134 -112.1253,-3.76533 -139.068,0.16667 -92.1306,-34.47866 57.1986,-42.21867 132.3026,-91.14667 153.8386,-105.636 z"
       style="fill:#068ae5;fill-opacity:1;fill-rule:nonzero;stroke:#ffffff;stroke-width:14.3848;stroke-linecap:butt;stroke-linejoin:round;stroke-miterlimit:4;stroke-dasharray:none;stroke-opacity:1;paint-order:stroke fill markers" /></g></svg>
